#!OML:ASF E:\inclinewalkrobotboard\Project 1\Capture day 1\Session 1\subject1.ASF
:FULLY-SPECIFIED
:DEGREES
240
root 8.19611 20.0405 14.0083 -166.701 -2.67363 178.15
lowerback 2.93116 -0.24735 -4.5798
upperback 3.47401 -0.664383 3.46228
thorax 2.03576 -0.579656 6.18028
lowerneck -7.13182 0.0259101 -5.59331
upperneck 24.4166 -2.07847 5.17261
head 8.86633 -1.59201 2.4196
rclavicle 7.95139e-015 4.21423e-014
rhumerus -27.6221 -22.3879 -76.3154
rradius 28.5654
rwrist 7.09527
rhand -17.9919 -38.3647
rfingers 7.12502
rthumb 8.2781 -68.1825
lclavicle 7.95139e-015 4.21423e-014
lhumerus -32.7164 3.07084 88.1257
lradius 22.2088
lwrist -23.2615
lhand -28.0389 -25.1452
lfingers 7.12502
lthumb -1.4235 4.82978
rfemur -25.4622 0.553675 21.72
rtibia 17.322
rfoot -12.9865 -0.32318
rtoes -29.1833
lfemur -30.6511 -2.17292 -21.325
ltibia 61.5948
lfoot -10.2734 2.58036
ltoes -61.8536
241
root 8.23011 20.0673 13.7475 -167.305 -2.26649 178.479
lowerback 3.06104 0.648732 -4.05847
upperback 3.29788 0.576137 2.99414
thorax 1.60964 0.0903394 5.37032
lowerneck -5.80279 -0.490502 -4.29831
upperneck 24.1279 -3.13534 5.09546
head 8.56663 -2.02863 2.07159
rclavicle -1.98785e-015 7.95139e-016
rhumerus -27.3026 -21.4657 -77.67
rradius 31.0375
rwrist 3.13907
rhand -19.3924 -37.9173
rfingers 7.12502
rthumb 6.92642 -67.784
lclavicle -1.98785e-015 7.95139e-016
lhumerus -33.708 0.841849 87.6644
lradius 22.0746
lwrist -22.7801
lhand -27.3157 -24.7325
lfingers 7.12502
lthumb -0.724996 5.24599
rfemur -23.4635 1.09024 22.2549
rtibia 16.7959
rfoot -13.9218 -0.234894
rtoes -28.761
lfemur -32.7282 -2.50949 -20.7509
ltibia 60.553
lfoot -12.1926 3.46772
ltoes -61.2716
242
root 8.25275 20.0871 13.4924 -167.878 -1.82859 178.986
lowerback 3.30916 1.09554 -3.43626
upperback 3.39783 1.16425 2.93611
thorax 1.51172 0.393127 4.93959
lowerneck -5.99043 -0.628217 -4.16911
upperneck 24.4489 -3.37224 5.02824
head 8.72224 -2.13968 2.0035
rclavicle 4.77083e-015 1.27222e-014
rhumerus -25.6493 -19.8003 -78.8899
rradius 33.136
rwrist 1.78154
rhand -18.3763 -37.4955
rfingers 7.12502
rthumb 7.90714 -67.3276
lclavicle 4.77083e-015 1.27222e-014
lhumerus -34.0617 1.22126 86.9423
lradius 21.6192
lwrist -23.3151
lhand -26.5241 -25.1583
lfingers 7.12502
lthumb 0.0395039 4.82142
rfemur -21.5662 1.40805 23.006
rtibia 16.3605
rfoot -14.8646 0.0425297
rtoes -28.9673
lfemur -34.7824 -3.0808 -19.8523
ltibia 59.6305
lfoot -14.3278 4.01604
ltoes -60.5966
243
root 8.27163 20.0996 13.2384 -168.43 -1.29528 179.41
lowerback 3.53715 1.56977 -2.88857
upperback 3.39732 1.80151 2.833
thorax 1.33057 0.727083 4.49874
lowerneck -5.75564 -0.733709 -3.89108
upperneck 24.659 -3.60582 4.89938
head 8.75738 -2.25741 1.8908
rclavicle -1.19271e-015 -1.90833e-014
rhumerus -24.2196 -18.2565 -79.9111
rradius 35.0028
rwrist 0.508849
rhand -18.6205 -36.6742
rfingers 7.12502
rthumb 7.67146 -66.5151
lclavicle -1.19271e-015 -1.90833e-014
lhumerus -34.6364 1.87589 86.0942
lradius 21.102
lwrist -24.1055
lhand -25.5944 -25.6952
lfingers 7.12502
lthumb 0.937438 4.2825
rfemur -19.6606 1.64289 23.652
rtibia 15.8443
rfoot -15.7228 0.351142
rtoes -29.5297
lfemur -36.7629 -3.59467 -19.0079
ltibia 57.9322
lfoot -15.6932 4.4974
ltoes -59.993
244
root 8.28711 20.107 12.9809 -168.95 -0.674285 179.703
lowerback 3.62755 1.85564 -2.57696
upperback 3.53437 2.17313 2.81468
thorax 1.39574 0.909745 4.29188
lowerneck -5.6341 -0.656038 -4.01945
upperneck 24.7387 -3.50478 4.90901
head 8.75873 -2.22921 1.92636
rclavicle 1.19271e-015 -1.03368e-014
rhumerus -22.2281 -16.1566 -80.9969
rradius 36.2688
rwrist -0.788454
rhand -19.2459 -36.2069
rfingers 7.12502
rthumb 7.06783 -66.0689
lclavicle 1.19271e-015 -1.03368e-014
lhumerus -35.0922 3.44849 85.0885
lradius 20.5616
lwrist -24.8308
lhand -25.2489 -25.524
lfingers 7.12502
lthumb 1.27118 4.45196
rfemur -17.7174 1.66949 24.1246
rtibia 15.1953
rfoot -16.4276 0.953015
rtoes -29.5398
lfemur -38.536 -4.03115 -18.2675
ltibia 55.9276
lfoot -16.6862 4.93488
ltoes -59.3293
245
root 8.30377 20.1085 12.7168 -169.344 -0.241941 179.839
lowerback 3.50567 2.05135 -2.41575
upperback 3.6912 2.42886 2.76174
thorax 1.61023 1.03098 4.14559
lowerneck -5.62132 -0.590153 -4.24362
upperneck 24.8792 -3.44789 5.07445
head 8.80715 -2.21453 2.02655
rclavicle -2.26615e-014 -3.97569e-014
rhumerus -20.0262 -14.308 -81.9515
rradius 37.0037
rwrist -1.34188
rhand -18.9418 -35.8211
rfingers 7.12502
rthumb 7.36136 -65.673
lclavicle -2.26615e-014 -3.97569e-014
lhumerus -35.5804 4.73071 84.1476
lradius 20.1405
lwrist -25.0867
lhand -25.7241 -24.9954
lfingers 7.12502
lthumb 0.812256 4.98278
rfemur -15.8189 1.51702 24.3912
rtibia 14.4678
rfoot -17.0742 1.63216
rtoes -28.4813
lfemur -40.2229 -4.53136 -17.6385
ltibia 53.5611
lfoot -17.2645 5.27136
ltoes -58.7434
246
root 8.32458 20.1044 12.4538 -169.575 0.18152 179.84
lowerback 3.25613 2.04948 -2.45669
upperback 3.71948 2.89746 2.59206
thorax 1.75183 1.46199 3.9974
lowerneck -5.46889 -0.575675 -4.10547
upperneck 25.1183 -3.53742 5.13859
head 8.86514 -2.25799 2.01659
rclavicle 5.1684e-015 3.73715e-014
rhumerus -18.114 -13.0566 -82.7203
rradius 37.4993
rwrist -1.16239
rhand -18.2913 -35.8777
rfingers 7.12502
rthumb 7.98919 -65.7068
lclavicle 5.1684e-015 3.73715e-014
lhumerus -36.2819 5.27337 83.3288
lradius 19.8524
lwrist -24.9799
lhand -26.125 -24.5885
lfingers 7.12502
lthumb 0.424988 5.39083
rfemur -14.1493 1.45503 24.4925
rtibia 13.8441
rfoot -17.8 2.11585
rtoes -28.0267
lfemur -41.9565 -4.88332 -17.1201
ltibia 50.9791
lfoot -17.6263 5.38494
ltoes -58.3695
247
root 8.34518 20.0981 12.192 -169.802 0.872205 179.887
lowerback 3.05183 2.32737 -2.56933
upperback 3.75008 3.26449 2.50349
thorax 1.86506 1.63889 3.97047
lowerneck -5.42887 -0.460232 -4.14779
upperneck 25.4074 -3.45516 5.21331
head 8.95493 -2.23405 2.05684
rclavicle -1.45113e-014 1.59028e-015
rhumerus -16.2028 -11.4007 -83.4443
rradius 37.8644
rwrist -0.938192
rhand -17.225 -37.1727
rfingers 7.12502
rthumb 9.0182 -66.96
lclavicle -1.45113e-014 1.59028e-015
lhumerus -36.9418 6.55517 82.3014
lradius 19.3423
lwrist -25.2404
lhand -26.2335 -24.2617
lfingers 7.12502
lthumb 0.320266 5.7178
rfemur -12.6573 1.60383 24.6216
rtibia 13.4486
rfoot -18.5529 2.60653
rtoes -28.4522
lfemur -43.4732 -4.81981 -16.5816
ltibia 48.1457
lfoot -17.8267 5.42839
ltoes -58.1189
248
root 8.35752 20.0866 11.9265 -170.002 1.40502 180.048
lowerback 2.84721 2.44936 -2.4618
upperback 3.81362 3.43305 2.47981
thorax 2.03769 1.72204 3.89453
lowerneck -5.5917 -0.313488 -4.44531
upperneck 25.745 -3.30099 5.3895
head 9.1006 -2.18406 2.18235
rclavicle -3.12092e-014 -1.43125e-014
rhumerus -14.263 -9.49183 -84.1295
rradius 38.0868
rwrist -0.89087
rhand -16.4161 -37.5735
rfingers 7.12502
rthumb 9.79869 -67.3255
lclavicle -3.12092e-014 -1.43125e-014
lhumerus -37.5441 8.27012 81.1337
lradius 18.6155
lwrist -25.6915
lhand -26.2527 -24.0561
lfingers 7.12502
lthumb 0.301676 5.92342
rfemur -11.2523 1.64694 24.8431
rtibia 13.1646
rfoot -19.2539 3.17077
rtoes -27.9705
lfemur -44.8004 -4.84158 -15.9233
ltibia 45.0972
lfoot -17.8658 5.20695
ltoes -58.1901
249
root 8.38014 20.0728 11.6546 -170.415 2.14596 180.267
lowerback 2.83339 2.68725 -2.48998
upperback 3.95388 3.76041 2.47149
thorax 2.16202 1.88511 3.90145
lowerneck -5.80659 -0.1827 -4.52711
upperneck 26.083 -3.16794 5.46762
head 9.25393 -2.13043 2.23564
rclavicle -1.72943e-014 -2.3059e-014
rhumerus -12.5038 -7.91362 -84.7533
rradius 38.2525
rwrist -0.86547
rhand -16.8272 -36.5656
rfingers 7.12502
rthumb 9.40212 -66.3359
lclavicle -1.72943e-014 -2.3059e-014
lhumerus -38.1694 9.58402 80.0366
lradius 17.9763
lwrist -25.9897
lhand -25.9176 -24.0366
lfingers 7.12502
lthumb 0.625358 5.94219
rfemur -9.58298 2.04103 25.1758
rtibia 12.922
rfoot -19.923 3.5709
rtoes -26.7589
lfemur -45.4675 -4.55915 -15.1856
ltibia 41.6552
lfoot -17.6413 4.6949
ltoes -58.5975
250
root 8.39784 20.053 11.3826 -170.752 2.75418 180.437
lowerback 2.80348 2.93472 -2.48423
upperback 4.04562 4.09697 2.42804
thorax 2.24879 2.05336 3.8523
lowerneck -5.88797 -0.111022 -4.51959
upperneck 26.3194 -3.12345 5.52387
head 9.35065 -2.1128 2.25814
rclavicle 5.1684e-015 -1.59028e-014
rhumerus -11.0156 -6.58233 -85.2748
rradius 38.4885
rwrist -0.937447
rhand -17.2098 -35.7337
rfingers 7.12502
rthumb 9.0329 -65.5203
lclavicle 5.1684e-015 -1.59028e-014
lhumerus -38.7903 11.001 78.775
lradius 17.3436
lwrist -26.7888
lhand -25.3039 -24.2415
lfingers 7.12502
lthumb 1.21807 5.73472
rfemur -8.01295 2.32132 25.4393
rtibia 12.7427
rfoot -20.6015 3.73769
rtoes -26.5137
lfemur -46.0473 -4.36548 -14.5256
ltibia 38.086
lfoot -16.9296 4.3105
ltoes -58.8681
